<?xml version="1.0" encoding="UTF-8" standalone="no"?>
<!-- Created with Inkscape (http://www.inkscape.org/) -->

<svg
   xmlns:dc="http://purl.org/dc/elements/1.1/"
   xmlns:cc="http://creativecommons.org/ns#"
   xmlns:rdf="http://www.w3.org/1999/02/22-rdf-syntax-ns#"
   xmlns:svg="http://www.w3.org/2000/svg"
   xmlns="http://www.w3.org/2000/svg"
   xmlns:xlink="http://www.w3.org/1999/xlink"
   xmlns:sodipodi="http://sodipodi.sourceforge.net/DTD/sodipodi-0.dtd"
   xmlns:inkscape="http://www.inkscape.org/namespaces/inkscape"
   width="386.19547"
   height="127.13701"
   id="svg2"
   version="1.1"
   inkscape:version="0.47 r22583"
   sodipodi:docname="opencores_logo_text.svg">
  <defs
     id="defs4">
    <inkscape:perspective
       sodipodi:type="inkscape:persp3d"
       inkscape:vp_x="0 : 526.18109 : 1"
       inkscape:vp_y="0 : 1000 : 0"
       inkscape:vp_z="744.09448 : 526.18109 : 1"
       inkscape:persp3d-origin="372.04724 : 350.78739 : 1"
       id="perspective10" />
    <inkscape:perspective
       id="perspective2907"
       inkscape:persp3d-origin="0.5 : 0.33333333 : 1"
       inkscape:vp_z="1 : 0.5 : 1"
       inkscape:vp_y="0 : 1000 : 0"
       inkscape:vp_x="0 : 0.5 : 1"
       sodipodi:type="inkscape:persp3d" />
    <inkscape:perspective
       id="perspective4057"
       inkscape:persp3d-origin="0.5 : 0.33333333 : 1"
       inkscape:vp_z="1 : 0.5 : 1"
       inkscape:vp_y="0 : 1000 : 0"
       inkscape:vp_x="0 : 0.5 : 1"
       sodipodi:type="inkscape:persp3d" />
  </defs>
  <sodipodi:namedview
     id="base"
     pagecolor="#ffffff"
     bordercolor="#666666"
     borderopacity="1.0"
     inkscape:pageopacity="0.0"
     inkscape:pageshadow="2"
     inkscape:zoom="1.4142136"
     inkscape:cx="159.88371"
     inkscape:cy="-34.567383"
     inkscape:document-units="px"
     inkscape:current-layer="layer1"
     showgrid="true"
     inkscape:window-width="1920"
     inkscape:window-height="1004"
     inkscape:window-x="0"
     inkscape:window-y="25"
     inkscape:window-maximized="1"
     showguides="true"
     inkscape:guide-bbox="true"
     inkscape:snap-object-midpoints="true">
    <inkscape:grid
       type="xygrid"
       id="grid2816"
       empspacing="5"
       visible="true"
       enabled="true"
       snapvisiblegridlinesonly="true" />
  </sodipodi:namedview>
  <metadata
     id="metadata7">
    <rdf:RDF>
      <cc:Work
         rdf:about="">
        <dc:format>image/svg+xml</dc:format>
        <dc:type
           rdf:resource="http://purl.org/dc/dcmitype/StillImage" />
        <dc:title />
      </cc:Work>
    </rdf:RDF>
  </metadata>
  <g
     inkscape:groupmode="layer"
     id="layer2"
     inkscape:label="BG"
     style="display:none"
     sodipodi:insensitive="true"
     transform="translate(-318.90227,-211.32291)">
    <image
       y="340.62442"
       x="322.28979"
       id="image4059"
       height="121"
       width="375"
       xlink:href="file:///home/sshuv/projects/engineering/ip_cores/libraries/i2c/doc/ggg.jpg" />
  </g>
  <g
     inkscape:label="Layer 1"
     inkscape:groupmode="layer"
     id="layer1"
     style="display:inline"
     transform="translate(-318.90227,-211.32291)">
    <path
       style="fill:#103466;fill-opacity:1;stroke:none"
       d="m 382.4798,212.43321 -19.15818,19.15817 c 0.97142,-0.10266 1.96244,-0.17677 2.96101,-0.17677 7.68089,0 14.6108,3.1203 19.64431,8.15382 5.03352,5.03352 8.17593,11.98552 8.17593,19.66641 0,1.27728 -0.0985,2.52493 -0.26517,3.7565 1.23158,-0.1667 2.47922,-0.26517 3.75651,-0.26516 7.81797,0 14.89912,3.22492 19.95367,8.41899 l -10.07628,10.07627 c -2.39149,-2.3915 -5.67566,-3.88909 -9.32497,-3.88909 -7.29861,0 -13.23615,5.93754 -13.23615,13.23616 0,7.29861 5.91544,13.21406 13.21406,13.21406 3.6493,0 6.95557,-1.4755 9.34706,-3.86699 l 6.20929,6.20928 11.42419,-11.4242 19.82109,-19.82108 -15.55635,-15.55635 -46.89002,-46.89002 z m -5.81154,37.27778 c -2.4366,-2.4366 -5.78361,-3.93328 -9.50174,-3.93328 -7.43628,0 -13.45713,6.02085 -13.45713,13.45713 0,7.43627 6.02085,13.45712 13.45713,13.45712 7.43627,0 13.45712,-6.02085 13.45712,-13.45712 0,-3.71814 -1.51877,-7.08724 -3.95538,-9.52385 z m 25.0581,68.36839 c -1.34609,0.2002 -2.73046,0.28726 -4.13215,0.28726 -15.36179,0 -27.82024,-12.45845 -27.82024,-27.82023 0,-1.27728 0.0985,-2.52493 0.26517,-3.7565 -1.23158,0.1667 -2.47922,0.26517 -3.75651,0.26516 -15.36178,0 -27.82023,-12.45845 -27.82023,-27.82023 0,-0.99022 0.0537,-1.97538 0.15468,-2.93891 l -18.60575,18.60574 62.44637,62.44637 19.26866,-19.26866 z"
       id="rect2913" />
    <g
       transform="translate(-18.598163,35.857428)"
       style="font-size:48px;font-style:normal;font-variant:normal;font-weight:bold;font-stretch:normal;fill:#000000;fill-opacity:1;stroke:none;font-family:DejaVu Sans;-inkscape-font-specification:DejaVu Sans"
       id="flowRoot3875">
      <path
         d="m 483.26562,209.16427 c -2.75001,3e-5 -4.88282,1.01566 -6.39843,3.04688 -1.51564,2.03127 -2.27345,4.89064 -2.27344,8.57812 -10e-6,3.67189 0.7578,6.52345 2.27344,8.55469 1.51561,2.03126 3.64842,3.04688 6.39843,3.04687 2.76561,1e-5 4.90623,-1.01561 6.42188,-3.04687 1.5156,-2.03124 2.27341,-4.8828 2.27344,-8.55469 -3e-5,-3.68748 -0.75784,-6.54685 -2.27344,-8.57812 -1.51565,-2.03122 -3.65627,-3.04685 -6.42188,-3.04688 m 0,-6.53906 c 5.62498,4e-5 10.03122,1.60941 13.21875,4.82812 3.18747,3.21878 4.78122,7.66409 4.78125,13.33594 -3e-5,5.65626 -1.59378,10.09376 -4.78125,13.3125 -3.18753,3.21875 -7.59377,4.82813 -13.21875,4.82813 -5.60938,0 -10.01563,-1.60938 -13.21875,-4.82813 -3.1875,-3.21874 -4.78125,-7.65624 -4.78125,-13.3125 0,-5.67185 1.59375,-10.11716 4.78125,-13.33594 3.20312,-3.21871 7.60937,-4.82808 13.21875,-4.82812"
         id="path4068" />
      <path
         d="m 510.57812,234.45333 0,13.78125 -8.39062,0 0,-36.23437 8.39062,0 0,3.84375 c 1.15624,-1.53123 2.43749,-2.65623 3.84375,-3.375 1.40624,-0.73435 3.02342,-1.10154 4.85157,-1.10156 3.23435,2e-5 5.8906,1.28909 7.96875,3.86718 2.07809,2.56253 3.11715,5.86721 3.11718,9.91407 -3e-5,4.04688 -1.03909,7.35938 -3.11718,9.9375 -2.07815,2.5625 -4.7344,3.84375 -7.96875,3.84375 -1.82815,0 -3.44533,-0.35938 -4.85157,-1.07813 -1.40626,-0.73437 -2.68751,-1.86718 -3.84375,-3.39844 m 5.57813,-16.99218 c -1.79689,2e-5 -3.1797,0.66408 -4.14844,1.99218 -0.95314,1.31252 -1.4297,3.21096 -1.42969,5.69532 -1e-5,2.48438 0.47655,4.39063 1.42969,5.71875 0.96874,1.3125 2.35155,1.96875 4.14844,1.96875 1.79686,0 3.16404,-0.65625 4.10156,-1.96875 0.9531,-1.31249 1.42967,-3.21874 1.42969,-5.71875 -2e-5,-2.49999 -0.47659,-4.40624 -1.42969,-5.71875 -0.93752,-1.31248 -2.3047,-1.96873 -4.10156,-1.96875"
         id="path4070" />
      <path
         d="m 558.70312,225.0549 0,2.39062 -19.61718,0 c 0.20311,1.96876 0.91405,3.44532 2.13281,4.42969 1.21874,0.98438 2.92186,1.47657 5.10937,1.47656 1.76561,1e-5 3.5703,-0.25781 5.41407,-0.77344 1.85935,-0.53124 3.7656,-1.32811 5.71875,-2.39062 l 0,6.46875 c -1.9844,0.75 -3.96878,1.3125 -5.95313,1.6875 -1.98439,0.39062 -3.96877,0.58594 -5.95312,0.58594 -4.75001,0 -8.44532,-1.20313 -11.08594,-3.60938 -2.625,-2.42187 -3.9375,-5.81249 -3.9375,-10.17187 0,-4.28124 1.28906,-7.64842 3.86719,-10.10157 2.59374,-2.45309 6.15624,-3.67966 10.6875,-3.67968 4.12498,2e-5 7.42185,1.24221 9.89062,3.72656 2.48435,2.4844 3.72653,5.8047 3.72656,9.96094 m -8.625,-2.78907 c -2e-5,-1.59373 -0.46877,-2.87498 -1.40625,-3.84375 -0.92189,-0.98435 -2.13283,-1.47654 -3.63281,-1.47656 -1.62501,2e-5 -2.94532,0.46096 -3.96094,1.38281 -1.01563,0.90627 -1.64844,2.21877 -1.89843,3.9375 l 10.89843,0"
         id="path4072" />
      <path
         d="m 586.00429,222.24059 0,15.98438 -8.4375,0 0,-2.60156 0,-9.63282 c -2e-5,-2.26561 -0.0547,-3.8281 -0.16406,-4.6875 -0.0938,-0.85935 -0.26564,-1.49216 -0.51562,-1.89843 -0.32815,-0.54686 -0.77346,-0.96873 -1.33594,-1.26563 -0.56252,-0.31248 -1.20314,-0.46873 -1.92188,-0.46875 -1.75001,2e-5 -3.12501,0.67971 -4.125,2.03906 -1.00001,1.34377 -1.50001,3.21096 -1.5,5.60157 l 0,12.91406 -8.39062,0 0,-26.25 8.39062,0 0,3.84375 c 1.26562,-1.53123 2.60936,-2.65623 4.03125,-3.375 1.42186,-0.73435 2.99217,-1.10154 4.71094,-1.10156 3.03123,2e-5 5.3281,0.92971 6.89063,2.78906 1.57809,1.8594 2.36715,4.56252 2.36718,8.10937"
         id="path4074" />
      <path
         d="m 616.78125,236.32833 c -1.65628,0.85938 -3.38284,1.50782 -5.17969,1.94532 -1.7969,0.4375 -3.6719,0.65625 -5.625,0.65625 -5.82814,0 -10.44532,-1.625 -13.85156,-4.875 -3.40625,-3.26562 -5.10938,-7.68749 -5.10938,-13.26563 0,-5.59372 1.70313,-10.0156 5.10938,-13.26562 3.40624,-3.26559 8.02342,-4.8984 13.85156,-4.89844 1.9531,4e-5 3.8281,0.21879 5.625,0.65625 1.79685,0.43753 3.52341,1.08597 5.17969,1.94531 l 0,7.24219 c -1.67191,-1.1406 -3.32034,-1.97654 -4.94531,-2.50781 -1.62503,-0.53122 -3.33596,-0.79685 -5.13282,-0.79688 -3.21876,3e-5 -5.75001,1.03128 -7.59375,3.09375 -1.84376,2.06253 -2.76563,4.90627 -2.76562,8.53125 -10e-6,3.60939 0.92186,6.44533 2.76562,8.50781 1.84374,2.06251 4.37499,3.09376 7.59375,3.09375 1.79686,1e-5 3.50779,-0.26561 5.13282,-0.79687 1.62497,-0.53124 3.2734,-1.36718 4.94531,-2.50781 l 0,7.24218"
         id="path4076" />
      <path
         d="m 631.53907,217.3674 c -1.85939,2e-5 -3.28127,0.67189 -4.26563,2.01562 -0.96876,1.32814 -1.45313,3.25002 -1.45312,5.76563 -1e-5,2.51563 0.48436,4.44532 1.45312,5.78906 0.98436,1.32813 2.40624,1.99219 4.26563,1.99219 1.8281,0 3.22654,-0.66406 4.19531,-1.99219 0.96873,-1.34374 1.4531,-3.27343 1.45312,-5.78906 -2e-5,-2.51561 -0.48439,-4.43749 -1.45312,-5.76563 -0.96877,-1.34373 -2.36721,-2.0156 -4.19531,-2.01562 m 0,-6 c 4.5156,2e-5 8.03904,1.21877 10.57031,3.65625 2.54685,2.43752 3.82028,5.81251 3.82031,10.125 -3e-5,4.31251 -1.27346,7.6875 -3.82031,10.125 -2.53127,2.4375 -6.05471,3.65625 -10.57031,3.65625 -4.53126,0 -8.07814,-1.21875 -10.64063,-3.65625 -2.54688,-2.4375 -3.82031,-5.81249 -3.82031,-10.125 0,-4.31249 1.27343,-7.68748 3.82031,-10.125 2.56249,-2.43748 6.10937,-3.65623 10.64063,-3.65625"
         id="path4078" />
      <path
         d="m 666.75314,219.12341 c -0.7344,-0.34373 -1.46877,-0.59373 -2.20313,-0.75 -0.71877,-0.17186 -1.44533,-0.2578 -2.17968,-0.25782 -2.15627,2e-5 -3.82033,0.69534 -4.99219,2.08594 -1.15626,1.37502 -1.73439,3.35158 -1.73438,5.92969 l 0,12.09375 -8.39062,0 0,-26.25 8.39062,0 0,4.3125 c 1.07812,-1.71873 2.31249,-2.96873 3.70313,-3.75 1.40623,-0.79685 3.08592,-1.19529 5.03906,-1.19531 0.28123,2e-5 0.58592,0.0156 0.91406,0.0469 0.32811,0.0157 0.80467,0.0625 1.42969,0.14063 l 0.0234,7.59375"
         id="path4080" />
      <path
         d="m 694.06518,225.06216 0,2.39062 -19.61718,0 c 0.20311,1.96876 0.91405,3.44532 2.13281,4.42969 1.21874,0.98438 2.92186,1.47657 5.10937,1.47656 1.76561,1e-5 3.5703,-0.25781 5.41407,-0.77344 1.85935,-0.53124 3.7656,-1.32811 5.71875,-2.39062 l 0,6.46875 c -1.9844,0.75 -3.96878,1.3125 -5.95313,1.6875 -1.98439,0.39062 -3.96877,0.58594 -5.95312,0.58594 -4.75001,0 -8.44532,-1.20313 -11.08594,-3.60938 -2.625,-2.42187 -3.9375,-5.81249 -3.9375,-10.17187 0,-4.28124 1.28906,-7.64842 3.86719,-10.10157 2.59374,-2.45309 6.15624,-3.67966 10.6875,-3.67968 4.12498,2e-5 7.42185,1.24221 9.89062,3.72656 2.48435,2.4844 3.72653,5.8047 3.72656,9.96094 m -8.625,-2.78907 c -2e-5,-1.59373 -0.46877,-2.87498 -1.40625,-3.84375 -0.92189,-0.98435 -2.13283,-1.47654 -3.63281,-1.47656 -1.62501,2e-5 -2.94532,0.46096 -3.96094,1.38281 -1.01563,0.90627 -1.64844,2.21877 -1.89843,3.9375 l 10.89843,0"
         id="path4082" />
      <path
         d="m 716.45073,212.81872 0,6.375 c -1.7969,-0.74998 -3.53127,-1.31248 -5.20312,-1.6875 -1.6719,-0.37498 -3.25002,-0.56248 -4.73438,-0.5625 -1.59376,2e-5 -2.78126,0.20315 -3.5625,0.60938 -0.76563,0.39064 -1.14844,1.00002 -1.14844,1.82812 0,0.6719 0.28906,1.18752 0.86719,1.54688 0.59374,0.35939 1.64843,0.62501 3.16406,0.79687 l 1.47657,0.21094 c 4.29685,0.54689 7.18747,1.44533 8.67187,2.69531 1.48435,1.25001 2.22654,3.21095 2.22656,5.88281 -2e-5,2.79688 -1.03127,4.89845 -3.09375,6.30469 -2.06252,1.40625 -5.14064,2.10938 -9.23437,2.10938 -1.73439,0 -3.53126,-0.14063 -5.39063,-0.42188 -1.84375,-0.26562 -3.74219,-0.67187 -5.69531,-1.21875 l 0,-6.375 c 1.67187,0.81251 3.38281,1.42188 5.13281,1.82813 1.76562,0.40625 3.55468,0.60938 5.36719,0.60937 1.64061,10e-6 2.87499,-0.22656 3.70313,-0.67969 0.8281,-0.45311 1.24217,-1.12499 1.24218,-2.01562 -10e-6,-0.74999 -0.28908,-1.30468 -0.86718,-1.66406 -0.56252,-0.37499 -1.69533,-0.66406 -3.39844,-0.86719 l -1.47656,-0.1875 c -3.73439,-0.46874 -6.35157,-1.33593 -7.85157,-2.60156 -1.5,-1.26561 -2.25,-3.18749 -2.25,-5.76563 0,-2.78123 0.95313,-4.84372 2.85938,-6.1875 1.90624,-1.34372 4.82811,-2.0156 8.76562,-2.01562 1.54686,2e-5 3.17186,0.11721 4.875,0.35156 1.70311,0.2344 3.55467,0.60159 5.55469,1.10156"
         id="path4084" />
      <text
         xml:space="preserve"
         style="font-size:15px;font-style:normal;font-weight:bold;fill:#000000;fill-opacity:1;stroke:none;font-family:DejaVu Sans;-inkscape-font-specification:DejaVu Sans Bold"
         x="508.88739"
         y="270.10599"
         id="text4086"><tspan
           sodipodi:role="line"
           id="tspan4088"
           x="508.88739"
           y="270.10599">www.opencores.org</tspan></text>
    </g>
  </g>
</svg>
